<svg xmlns="http://www.w3.org/2000/svg" width="236" height="39" viewBox="0 0 236 39">
  <g id="Group_3792" data-name="Group 3792" transform="translate(-838 -541)">
    <rect id="Rectangle_928" data-name="Rectangle 928" width="236" height="39" rx="5" transform="translate(838 541)" fill="#5bc0de"/>
    <path id="Rectangle_927" data-name="Rectangle 927" d="M5,0H47a0,0,0,0,1,0,0V39a0,0,0,0,1,0,0H5a5,5,0,0,1-5-5V5A5,5,0,0,1,5,0Z" transform="translate(838 541)" fill="#93d4e7"/>
    <text id="Sign_in_with_Twitter" data-name="Sign in with Twitter" transform="translate(965 567)" fill="#fff" font-size="16" font-family="OpenSans, Open Sans"><tspan x="-70" y="0">Sign in with Twitter</tspan></text>
    <path id="Icon_zocial-twitter" data-name="Icon zocial-twitter" d="M-4.738,16.336q.565.055,1.129.056A9.337,9.337,0,0,0,2.3,14.36a4.577,4.577,0,0,1-2.766-.942A4.629,4.629,0,0,1-2.14,11.065a4.476,4.476,0,0,0,.885.076,4.652,4.652,0,0,0,1.261-.169A4.579,4.579,0,0,1-2.733,9.343,4.6,4.6,0,0,1-3.816,6.322V6.265a4.456,4.456,0,0,0,2.164.583A4.663,4.663,0,0,1-3.2,5.164,4.631,4.631,0,0,1-3.778,2.9,4.614,4.614,0,0,1-3.119.506,13.205,13.205,0,0,0,1.2,4.017,13.37,13.37,0,0,0,6.669,5.475a5.341,5.341,0,0,1-.132-1.092A4.568,4.568,0,0,1,7.93,1.033,4.59,4.59,0,0,1,11.3-.359a4.563,4.563,0,0,1,3.463,1.506A9.557,9.557,0,0,0,17.774-.02,4.527,4.527,0,0,1,15.7,2.615a9.7,9.7,0,0,0,2.71-.753A9.113,9.113,0,0,1,16.06,4.327v.622a13.62,13.62,0,0,1-.555,3.811,13.562,13.562,0,0,1-1.694,3.652,14.541,14.541,0,0,1-2.72,3.1A12.056,12.056,0,0,1,7.3,17.664a13.86,13.86,0,0,1-4.753.8A13.335,13.335,0,0,1-4.738,16.336Z" transform="translate(854.738 551.359)" fill="#fff" opacity="0.9"/>
  </g>
</svg>
