<svg xmlns="http://www.w3.org/2000/svg" xmlns:xlink="http://www.w3.org/1999/xlink" width="27.727" height="29.76" viewBox="0 0 27.727 29.76">
  <defs>
    <clipPath id="clip-path">
      <path id="Path_2382" data-name="Path 2382" d="M0-478.572H27.727v29.76H0Z" transform="translate(0 478.572)" fill="#fff"/>
    </clipPath>
  </defs>
  <g id="Group_3183" data-name="Group 3183" transform="translate(0 478.572)">
    <g id="Group_3182" data-name="Group 3182" transform="translate(0 -478.572)" clip-path="url(#clip-path)">
      <g id="Group_3180" data-name="Group 3180" transform="translate(5.482 0)">
        <path id="Path_2380" data-name="Path 2380" d="M-88.165-33a2.662,2.662,0,0,0,2.021,3.98,2.71,2.71,0,0,0,1.8-.466,2.685,2.685,0,0,0,1.088-2.581,2.6,2.6,0,0,0-2.705-2.208A2.717,2.717,0,0,0-88.165-33m-1.213,1.026a10.868,10.868,0,0,0-3.3,1.586c-.271.186-1.3,1.112-1.337.155-.02-.445.7-.786.964-.964A13.409,13.409,0,0,1-89.16-33a3.544,3.544,0,0,1,3.576-2.177,3.471,3.471,0,0,1,3.234,3.2,3.493,3.493,0,0,1-3.482,3.856,3.491,3.491,0,0,1-3.545-3.856" transform="translate(94.011 35.193)" fill="#fff"/>
      </g>
      <g id="Group_3181" data-name="Group 3181" transform="translate(0 2.893)">
        <path id="Path_2381" data-name="Path 2381" d="M-152.552-347.165c.133.794-.191,1.653.031,2.332a1,1,0,0,0,1.337.529c.819-.367.447-1.812.529-2.923,0-.019,0-.037-.031-.031a2.369,2.369,0,0,1-1.866.093m.28-.839a1.539,1.539,0,0,0,2.083-1.679,1.464,1.464,0,0,0-1.679-1.213,1.516,1.516,0,0,0-.4,2.892m5.69-10.821a1.55,1.55,0,0,0,2.177,1.182,1.518,1.518,0,0,0-.777-2.861,1.48,1.48,0,0,0-1.4,1.679m-6.747-5.815a2.531,2.531,0,0,1-.156,1.9c1.046-.191.933.455.933,1.368v9.7a4,4,0,0,1,.9-.155c.4.007.764.209,1,.187v-1.368c0-.4-.1-1.043.155-1.244s1.173-.093,1.71-.093c.574,0,1.477-.142,1.71.124.137.156.093.738.093,1.119v6.188a5.385,5.385,0,0,0,.187,2.3,1.01,1.01,0,0,0,1.679-.187,4.963,4.963,0,0,0,.062-1.4v-10.416c-3.2-.033-3.133-4.82,0-4.788.055-.46-.121-1.027.124-1.244.155-.138.667-.093,1-.093h5.441a7.154,7.154,0,0,0,2.083-.093.981.981,0,0,0,.56-1.119c-.188-.91-1.357-.777-2.55-.777H-153.3c-.036.005-.034.049-.031.093m-8.209.218a1.032,1.032,0,0,0,.373,1.617c.876.321,2.487-.113,3.451.062a2.68,2.68,0,0,1-.155-1.99c-1.191.191-3.033-.381-3.669.311m4.851-.56a1.536,1.536,0,0,0,1.026,2.581,1.53,1.53,0,0,0,1.461-2.114,1.505,1.505,0,0,0-1.617-.871,1.348,1.348,0,0,0-.871.4m18.781-.622c1.636-.2,2.808.382,2.954,1.617a1.92,1.92,0,0,1-1.586,2.114,35.026,35.026,0,0,1-3.825,0h-3.793v.591a2.589,2.589,0,0,1,1.493,2.208,2.483,2.483,0,0,1-1.493,2.3v9.888a11.569,11.569,0,0,0,7.338-8.737,12.905,12.905,0,0,0,.218-3.7c-.035-.413-.038-.871.4-.871.678,0,.532,1.691.529,2.394a12.4,12.4,0,0,1-2.021,6.716,12.762,12.762,0,0,1-6.468,5.193c.139,1.513-.613,2.754-2.145,2.55a1.9,1.9,0,0,1-1.555-1.524,17.32,17.32,0,0,1,0-2.146c0-2.025,0-4.557,0-6.436-.56-.072-1.254-.011-1.866-.031a23.175,23.175,0,0,0-.031,2.581c.057.3.28.459.373.777a2.311,2.311,0,0,1,0,1.337c-.071.266-.3.493-.373.808a8.121,8.121,0,0,0,0,1.492,7.745,7.745,0,0,1-.062,1.8,1.878,1.878,0,0,1-3.638-.249c-.106-.833.173-1.868,0-2.767-.064-.333-.41-.626-.529-.995a2.722,2.722,0,0,1,.218-1.959c.1-.173.27-.267.311-.435a7.419,7.419,0,0,0,0-1.368c0-3.071,0-6.352,0-9.39-1.172-.186-1.541.53-2.705.28-.256-.055-.436-.256-.715-.311a9.8,9.8,0,0,0-1.8,0h-1.8c-1.118,2.794-.522,6.6.56,8.924a12.128,12.128,0,0,0,4.353,5.006c.315.206.666.349.653.653a.508.508,0,0,1-.28.4c-.453.164-1.364-.671-1.772-.995a12.755,12.755,0,0,1-3.731-4.664,13.62,13.62,0,0,1-.746-9.39,4.227,4.227,0,0,1-.808-.591,1.917,1.917,0,0,1,1.15-3.078,15.855,15.855,0,0,1,1.866,0,9.738,9.738,0,0,0,1.866,0c.287-.067.5-.384.746-.5a2.544,2.544,0,0,1,1.9-.062c.287.112.58.487.9.56a10.2,10.2,0,0,0,1.866,0h12.873a11.086,11.086,0,0,0-3.545-3.2c-.29-.172-2.008-.835-1.088-1.337.419-.229,1.509.554,1.866.777a13.869,13.869,0,0,1,3.949,3.762" transform="translate(162.667 370.185)" fill="#fff"/>
      </g>
    </g>
  </g>
</svg>
