<svg xmlns="http://www.w3.org/2000/svg" xmlns:xlink="http://www.w3.org/1999/xlink" width="29.274" height="24.951" viewBox="0 0 29.274 24.951">
  <defs>
    <clipPath id="clip-path">
      <path id="Path_2413" data-name="Path 2413" d="M0-403.312H29.274v24.951H0Z" transform="translate(0 403.312)" fill="#fff"/>
    </clipPath>
  </defs>
  <g id="Group_3219" data-name="Group 3219" transform="translate(0 403.312)">
    <g id="Group_3218" data-name="Group 3218" transform="translate(0 -403.312)" clip-path="url(#clip-path)">
      <g id="Group_3214" data-name="Group 3214" transform="translate(0.255 12.721)">
        <path id="Path_2409" data-name="Path 2409" d="M-392.185-14.75a4.791,4.791,0,0,0-1.763.742c-.818.433-1.592.835-2.413,1.268a6.082,6.082,0,0,1-1.237.619,13.241,13.241,0,0,1-2.073,0h-4.145c-.776,0-1.6.1-1.578-.495.018-.567.806-.464,1.485-.464a17.929,17.929,0,0,0,1.98,0,2.03,2.03,0,0,0,1.7-1.64h-5.042c-1.7,0-3.28-.073-4.362.712a11.714,11.714,0,0,0-.928.835c-.658.6-1.148,1.086-1.794,1.732-.246.246-.792.621-.866.928a7.283,7.283,0,0,0,0,1.578v1.578c1.081-.079,2.222.1,3.372,0,.5-.045,1.017-.209,1.547-.309,3.234-.61,6.332-1.142,9.528-1.763a11.541,11.541,0,0,0,1.578-.309,6.116,6.116,0,0,0,.866-.526c2.044-1.254,4.163-2.615,6.094-3.836a2.546,2.546,0,0,0-1.949-.65m-21,8.321a12.112,12.112,0,0,0-.031,1.454c0,.4.082,1.113-.155,1.33-.21.193-.811.124-1.206.124h-1.3c-.763,0-2.151.2-2.165-.464s1.048-.495,1.67-.495h2.165c.072-1.877.01-3.887.031-5.816h-2.165c-.67,0-1.658.152-1.7-.433-.053-.722,1.149-.526,1.794-.526h1.145a5.6,5.6,0,0,0,1.145,0c.208-.05.451-.375.65-.557.6-.549,1.321-1.228,1.856-1.763a6.488,6.488,0,0,1,2.877-1.949,22.13,22.13,0,0,1,4.671-.155h2.413c.479,0,1.947-.151,2.2.186s.032,1.085-.093,1.423a5.032,5.032,0,0,1-.619.99c.833-.1,1.454.133,2.2,0a5.38,5.38,0,0,0,1.176-.619c.422-.226.844-.4,1.206-.588a10.1,10.1,0,0,1,3.063-1.392,3.256,3.256,0,0,1,2.939,1.083c.152.163.405.414.4.65,0,.352-.525.565-.866.773-2.016,1.23-3.946,2.45-5.97,3.712a6.886,6.886,0,0,1-.99.619,10.558,10.558,0,0,1-1.609.309c-2.609.474-5.3.986-7.95,1.485-1.069.2-2.137.519-3.155.619-1.237.121-2.483-.092-3.619,0" transform="translate(418.048 15.723)" fill="#fff"/>
      </g>
      <g id="Group_3215" data-name="Group 3215" transform="translate(2.164 20.912)">
        <path id="Path_2410" data-name="Path 2410" d="M-5.795-.311a.468.468,0,0,1,.526.155,3.807,3.807,0,0,1,.062,1.64.491.491,0,0,1-.9.093A5.782,5.782,0,0,1-6.135-.032a.443.443,0,0,1,.34-.278" transform="translate(6.177 0.331)" fill="#fff"/>
      </g>
      <g id="Group_3216" data-name="Group 3216" transform="translate(9.242 0)">
        <path id="Path_2411" data-name="Path 2411" d="M-66.859-16.732v1.578c0,.507.138,1.215-.062,1.547-.215.357-1.106.217-1.578.217h-1.794v2.444h1.763c.5,0,1.335-.141,1.578.217a4.419,4.419,0,0,1,.093,1.609v1.609h2.475v-1.64c0-.508-.139-1.244.062-1.578.214-.356,1.082-.217,1.547-.217h1.794v-2.444h-1.794c-.494,0-1.338.143-1.547-.247a4.081,4.081,0,0,1-.062-1.547v-1.64h-2.444c-.036.005-.034.049-.031.093m3.434,2.382h1.7c.39,0,1.319-.135,1.578.124s.124,1.578.124,2.073c0,.544.143,1.775-.124,2.042-.293.293-1.242.124-1.578.124h-1.7v1.732c0,.419.124,1.316-.155,1.578-.313.295-1.421.124-1.98.124A6.337,6.337,0,0,1-67.6-6.616c-.356-.21-.217-1.206-.217-1.578V-9.957a16.933,16.933,0,0,0-1.732-.031c-.391,0-1.358.124-1.578-.155-.246-.312-.093-1.548-.093-2.042,0-.515-.143-1.713.093-2.011s1.226-.155,1.578-.155h1.732V-16.02c0-.736-.171-1.646.433-1.763a11.273,11.273,0,0,1,1.98,0c.524,0,1.536-.144,1.825.124.306.283.155,1.165.155,1.578Z" transform="translate(71.268 17.835)" fill="#fff"/>
      </g>
      <g id="Group_3217" data-name="Group 3217" transform="translate(0 0.072)">
        <path id="Path_2412" data-name="Path 2412" d="M-65.372-17.393a3.606,3.606,0,0,1,.767,1.664c.708.012,1.59-.15,1.615.538s-.851.6-1.6.587a3.315,3.315,0,0,1-3.164,2.773,3.331,3.331,0,0,0,.457.473l2.838,2.838a.934.934,0,0,1,.359.587.559.559,0,0,1-.718.538c-.231-.056-.451-.353-.652-.555-1.209-1.209-2.412-2.4-3.621-3.6-.221-.221-.589-.479-.587-.832,0-.785,1.073-.509,1.81-.555A2.2,2.2,0,0,0-65.845-14.6h-2.708a2.112,2.112,0,0,1-.832-.065.582.582,0,0,1,.033-1.011,2.572,2.572,0,0,1,.848-.049h2.642a2.157,2.157,0,0,0-1.99-1.664c-.235-.016-.49,0-.734,0-.527,0-.969.018-1.076-.408a.574.574,0,0,1,.555-.718,10.292,10.292,0,0,1,1.435.016c.9.036,1.959,0,2.887,0a6.8,6.8,0,0,1,1.419.016.585.585,0,0,1,.065,1.044,2.9,2.9,0,0,1-1.011.049Z" transform="translate(69.683 18.54)" fill="#fff"/>
      </g>
    </g>
  </g>
</svg>
