<svg xmlns="http://www.w3.org/2000/svg" xmlns:xlink="http://www.w3.org/1999/xlink" width="23.331" height="28.636" viewBox="0 0 23.331 28.636">
  <defs>
    <clipPath id="clip-path">
      <path id="Path_2400" data-name="Path 2400" d="M0-473.53H23.331v28.636H0Z" transform="translate(0 473.53)" fill="#303746"/>
    </clipPath>
  </defs>
  <g id="Group_3203" data-name="Group 3203" transform="translate(0 473.53)">
    <g id="Group_3202" data-name="Group 3202" transform="translate(0 -473.53)" clip-path="url(#clip-path)">
      <g id="Group_3195" data-name="Group 3195" transform="translate(0 0)">
        <path id="Path_2393" data-name="Path 2393" d="M-21.886-68.577c-.495.106-.393.653-.393,1.21v19.05c0,.6-.171,2.486.121,2.812.2.22,1.435.151,2.026.151H-7.039c.619,0,1.824.109,2.056-.151.39-.436-.04-1.5.121-2.268H-17.713a6.037,6.037,0,0,1-1.754-.091c-1.092-.406-.877-1.7-.877-3.175V-68.577c-.557.08-1.041-.107-1.542,0m17.054-2.661c0-.032-.039-.024-.03.03v1.482A3.9,3.9,0,0,0-4.8-68.3c.195.329,1.014.212,1.572.212h1.512c-.935-1.031-2.079-2.114-3.115-3.145m-12.549-.726a9.282,9.282,0,0,0-1.663,0c-.47.1-.333.764-.333,1.27v20.441a4.024,4.024,0,0,0,.091,1.391c.115.127.742.121,1.028.121H-3.29c.6,0,1.985.127,2.207-.121.248-.276.091-1.484.091-2.177V-67.125H-2.957a7.179,7.179,0,0,1-1.9-.06c-1.548-.493-.788-2.933-.968-4.778ZM-3.894-47.773c.035,1.556.168,2.959-1,3.326a9.162,9.162,0,0,1-2.147.06H-20.193c-1.51,0-2.562.169-2.963-.968a11.6,11.6,0,0,1-.091-2.842V-65.644a13.03,13.03,0,0,1,.06-2.842c.312-1.111,1.357-1.124,2.842-1.058-.022-1.633-.218-3.214,1.179-3.387a30.039,30.039,0,0,1,3.477,0h8.678a10.915,10.915,0,0,1,1.724,0c.392.073,1.1.952,1.391,1.24,1.128,1.128,2.106,2.136,3.266,3.3.214.214.557.476.6.7a14.161,14.161,0,0,1,0,2.389c0,5.455.025,11.067-.03,16.48-.2,1.428-2.266,1-3.84,1.058" transform="translate(23.295 72.991)" fill="#303746"/>
      </g>
      <g id="Group_3196" data-name="Group 3196" transform="translate(7.782 3.944)">
        <path id="Path_2394" data-name="Path 2394" d="M-76.691-.251a5.3,5.3,0,0,1,3.356.877,5.321,5.321,0,0,1,2.147,5.9,5.169,5.169,0,0,1-4.657,3.81,5.14,5.14,0,0,1-5.292-3.115,5.809,5.809,0,0,1-.454-1.663c-.062-.584-.12-1.577.454-1.6.69-.031.457.745.484,1.3a4.24,4.24,0,0,0,3.387,4.022A4.266,4.266,0,0,0-72.4,7.007a4.437,4.437,0,0,0,.3-3.084A4.335,4.335,0,0,0-77.81.959c-.357.133-.9.624-1.33.454a.542.542,0,0,1-.272-.393c-.034-.45.677-.742,1.058-.907a4.939,4.939,0,0,1,1.663-.363" transform="translate(81.628 0.267)" fill="#303746"/>
      </g>
      <g id="Group_3197" data-name="Group 3197" transform="translate(9.669 5.824)">
        <path id="Path_2395" data-name="Path 2395" d="M-45.953-15.678c-.095.609.142,1.237-.03,1.663-.226.558-1.241.142-1.905.272v.968c.687.126,1.69-.291,1.905.3.152.42-.05,1.03.03,1.633h.968c.126-.687-.291-1.69.3-1.905.42-.152,1.03.05,1.633-.03v-.968c-.687-.126-1.69.291-1.905-.3-.152-.42.05-1.03-.03-1.633Zm1.935.937c.855.052,1.675-.085,1.905.7a2.755,2.755,0,0,1-.242,1.966c-.391.391-.923.241-1.633.272-.025.854.036,1.689-.7,1.905a3.557,3.557,0,0,1-1.572,0c-.745-.22-.688-1.007-.665-1.875-.711-.072-1.289.065-1.663-.3a2.578,2.578,0,0,1-.242-1.966c.216-.733,1-.7,1.875-.665.024-1-.035-1.727.786-1.905s1.915-.048,2.117.635a8.036,8.036,0,0,1,.03,1.24" transform="translate(48.91 16.687)" fill="#303746"/>
      </g>
      <g id="Group_3198" data-name="Group 3198" transform="translate(8.466 6.109)">
        <path id="Path_2396" data-name="Path 2396" d="M-7.336-.438C-6.46-.671-6.7.613-7.185.741-8.055.97-7.926-.281-7.336-.438" transform="translate(7.808 0.466)" fill="#303746"/>
      </g>
      <g id="Group_3199" data-name="Group 3199" transform="translate(7.837 16.456)">
        <path id="Path_2397" data-name="Path 2397" d="M-5.838-1.293a14.289,14.289,0,0,1,2.691-.03c2.239,0,4.356-.012,6.652,0,.523,0,.815.079.816.484,0,.734-1.607.484-2.359.484H-3.721c-.771,0-2.369.21-2.479-.363a.458.458,0,0,1,.363-.575" transform="translate(6.214 1.376)" fill="#303746"/>
      </g>
      <g id="Group_3200" data-name="Group 3200" transform="translate(7.837 18.875)">
        <path id="Path_2398" data-name="Path 2398" d="M-5.838-1.293a14.289,14.289,0,0,1,2.691-.03c2.239,0,4.356-.012,6.652,0,.523,0,.815.079.816.484,0,.734-1.607.484-2.359.484H-3.721c-.771,0-2.369.21-2.479-.363a.458.458,0,0,1,.363-.575" transform="translate(6.214 1.376)" fill="#303746"/>
      </g>
      <g id="Group_3201" data-name="Group 3201" transform="translate(7.837 21.294)">
        <path id="Path_2399" data-name="Path 2399" d="M-5.838-1.293a14.284,14.284,0,0,1,2.691-.03c2.239,0,4.356-.012,6.652,0,.523,0,.815.079.816.484,0,.734-1.607.484-2.359.484H-3.721c-.771,0-2.369.21-2.479-.363a.458.458,0,0,1,.363-.574" transform="translate(6.214 1.376)" fill="#303746"/>
      </g>
    </g>
  </g>
</svg>
