<svg xmlns="http://www.w3.org/2000/svg" xmlns:xlink="http://www.w3.org/1999/xlink" width="19.872" height="28.26" viewBox="0 0 19.872 28.26">
  <defs>
    <clipPath id="clip-path">
      <path id="Path_2376" data-name="Path 2376" d="M0-513.181H19.872v28.26H0Z" transform="translate(0 513.181)" fill="#fff"/>
    </clipPath>
  </defs>
  <g id="Group_3174" data-name="Group 3174" transform="translate(0 513.181)">
    <g id="Group_3173" data-name="Group 3173" transform="translate(0 -513.181)" clip-path="url(#clip-path)">
      <g id="Group_3165" data-name="Group 3165" transform="translate(0 0)">
        <path id="Path_2368" data-name="Path 2368" d="M-17.784-36.279a11.164,11.164,0,0,0-.11,2.919v18.173a11.824,11.824,0,0,0,.083,2.946,1.682,1.682,0,0,0,1.294,1.156,8.578,8.578,0,0,0,1.845.055H-3.135a11.269,11.269,0,0,0,1.9-.028,1.76,1.76,0,0,0,1.4-1.514,28.148,28.148,0,0,0,0-2.946V-33.361a11.424,11.424,0,0,0-.083-2.891A1.813,1.813,0,0,0-1.07-37.381a7.188,7.188,0,0,0-1.817-.083H-12.47a32.705,32.705,0,0,0-3.882.028,1.655,1.655,0,0,0-1.432,1.156m1.377-2.038a42.293,42.293,0,0,1,4.268-.028c3.433,0,7.052-.11,10.574,0A2.559,2.559,0,0,1,.885-36.582a5.97,5.97,0,0,1,.165,1.955v21.092c0,1.608-.257,2.342-1.239,2.974-.832.535-2.276.413-3.8.413H-14.562A12,12,0,0,1-16.6-10.2,2.559,2.559,0,0,1-18.72-12.3a17.188,17.188,0,0,1-.055-2.919v-17.76a16.422,16.422,0,0,1,.083-3.359,2.576,2.576,0,0,1,2.285-1.983" transform="translate(18.82 38.394)" fill="#fff"/>
      </g>
      <g id="Group_3166" data-name="Group 3166" transform="translate(3.135 3.583)">
        <path id="Path_2369" data-name="Path 2369" d="M-217.721-134.027a6.052,6.052,0,0,0-.578-3.717,5.854,5.854,0,0,0-5.7-3.222,5.964,5.964,0,0,0-5.039,3.525,6.112,6.112,0,0,0-.385,3.635,6.19,6.19,0,0,0,1.184,2.506c.057.07.138.206.248.193-.171-2.081.229-3.59,1.625-4.1.155.258.456.517.578.716a1.806,1.806,0,0,0-1.322,1.6c-.076.813.056,1.738,0,2.643a5.6,5.6,0,0,0,3.525,1.184,6.2,6.2,0,0,0,2.836-.716c.219-.121.639-.343.688-.5a5.944,5.944,0,0,0,0-1.322c0-.447.039-.944,0-1.322a1.788,1.788,0,0,0-1.349-1.569c.23-.22.413-.487.633-.716,1.372.537,1.77,2.048,1.6,4.13a5.414,5.414,0,0,0,1.459-2.946m-6.306-7.792a6.839,6.839,0,0,1,5.066,1.762,6.745,6.745,0,0,1,2.175,4.626,6.518,6.518,0,0,1-1.762,5.011,6.63,6.63,0,0,1-4.6,2.2,6.76,6.76,0,0,1-5.039-1.735,6.637,6.637,0,0,1-2.2-4.6,6.552,6.552,0,0,1,1.735-5.039,6.912,6.912,0,0,1,1.927-1.487,6.83,6.83,0,0,1,2.7-.743" transform="translate(230.409 141.838)" fill="#fff"/>
      </g>
      <g id="Group_3167" data-name="Group 3167" transform="translate(7.531 6.009)">
        <path id="Path_2370" data-name="Path 2370" d="M-15.191-39.957a1.537,1.537,0,0,0,1.68,1.625,1.574,1.574,0,0,0,1.4-1.432,1.5,1.5,0,0,0-1.735-1.625,1.468,1.468,0,0,0-1.349,1.432M-13.9-42.27a2.355,2.355,0,0,1,2.671,2.258,2.394,2.394,0,0,1-2.561,2.561,2.414,2.414,0,0,1-2.285-2.561,2.122,2.122,0,0,1,.661-1.542A2.31,2.31,0,0,1-13.9-42.27" transform="translate(16.076 42.286)" fill="#fff"/>
      </g>
      <g id="Group_3168" data-name="Group 3168" transform="translate(8.625 11.531)">
        <path id="Path_2371" data-name="Path 2371" d="M-40.826,0a10.2,10.2,0,0,1,.275,1.872c-.053.237-.439.43-.606.551-.223.161-.442.414-.716.413s-.5-.248-.716-.413c-.149-.114-.577-.381-.606-.578-.076-.529.261-1.254.248-1.817a7.581,7.581,0,0,0,.881.165c-.095.419-.127.9-.22,1.322a3.955,3.955,0,0,0,.413.33,3.71,3.71,0,0,0,.413-.3c-.077-.437-.126-.9-.193-1.349A2.881,2.881,0,0,0-40.826,0" transform="translate(43.205)" fill="#fff"/>
      </g>
      <g id="Group_3169" data-name="Group 3169" transform="translate(3.783 19.396)">
        <path id="Path_2372" data-name="Path 2372" d="M-5.785-1.115a10.951,10.951,0,0,1,2.038-.028c1.677,0,3.214-.084,4.984,0,.355.017.564.114.578.413C1.844-.1.791-.262.08-.262H-4.3c-.663,0-1.745.157-1.817-.358a.406.406,0,0,1,.33-.5" transform="translate(6.122 1.18)" fill="#fff"/>
      </g>
      <g id="Group_3170" data-name="Group 3170" transform="translate(12.599 19.395)">
        <path id="Path_2373" data-name="Path 2373" d="M-5.713-1.133A13.327,13.327,0,0,1-3.4-1.161c.445,0,.861-.012.881.413.031.661-.953.468-1.762.468-.781,0-1.71.174-1.762-.385a.422.422,0,0,1,.33-.468" transform="translate(6.045 1.199)" fill="#fff"/>
      </g>
      <g id="Group_3171" data-name="Group 3171" transform="translate(3.78 21.616)">
        <path id="Path_2374" data-name="Path 2374" d="M-5.845-.834a9.065,9.065,0,0,1,1.6-.028H5.059c.621,0,1.1-.025,1.1.441,0,.484-.551.441-1.212.441h-9.83c-.593,0-1.22.063-1.294-.33a.433.433,0,0,1,.33-.523" transform="translate(6.185 0.882)" fill="#fff"/>
      </g>
      <g id="Group_3172" data-name="Group 3172" transform="translate(3.78 23.819)">
        <path id="Path_2375" data-name="Path 2375" d="M-5.845-.834a9.065,9.065,0,0,1,1.6-.028H5.059c.621,0,1.1-.025,1.1.441,0,.484-.551.441-1.212.441h-9.83c-.593,0-1.22.063-1.294-.33a.433.433,0,0,1,.33-.523" transform="translate(6.185 0.882)" fill="#fff"/>
      </g>
    </g>
  </g>
</svg>
