<svg xmlns="http://www.w3.org/2000/svg" xmlns:xlink="http://www.w3.org/1999/xlink" width="31.052" height="28.26" viewBox="0 0 31.052 28.26">
  <defs>
    <clipPath id="clip-path">
      <path id="Path_2448" data-name="Path 2448" d="M0-460.642H31.052v28.26H0Z" transform="translate(0 460.642)" fill="#fff"/>
    </clipPath>
  </defs>
  <g id="Group_3266" data-name="Group 3266" transform="translate(0 460.642)">
    <g id="Group_3265" data-name="Group 3265" transform="translate(0 -460.642)" clip-path="url(#clip-path)">
      <g id="Group_3261" data-name="Group 3261" transform="translate(18.202 5.602)">
        <path id="Path_2444" data-name="Path 2444" d="M-114.007-2.261a6.747,6.747,0,0,1,5.048,4.346,6.7,6.7,0,0,1,.382,3.388,7.455,7.455,0,0,1-1.528,3.486,6.822,6.822,0,0,1-5.753,2.466,7.03,7.03,0,0,1-5.258-3.116.933.933,0,0,1-.213-.76.512.512,0,0,1,.518-.336c.351.046.489.419.661.673A5.7,5.7,0,0,0-118,9.79a5.885,5.885,0,0,0,4.156.409A5.771,5.771,0,0,0-109.8,6.357,5.865,5.865,0,0,0-110.856.709a5.74,5.74,0,0,0-3.537-2.06,5.47,5.47,0,0,0-3.753.619,6.007,6.007,0,0,0-2.038,1.889c-.212.319-.359.656-.675.613-.852-.116-.322-.97.031-1.442a6.754,6.754,0,0,1,4.4-2.664,6.944,6.944,0,0,1,2.419.074" transform="translate(121.355 2.409)" fill="#fff"/>
      </g>
      <g id="Group_3262" data-name="Group 3262" transform="translate(22.709 8.271)">
        <path id="Path_2445" data-name="Path 2445" d="M-15.8-65.345c-.09.76.943.668.919.052a.425.425,0,0,0-.587-.414.425.425,0,0,0-.332.362m.97-1.422c.449.306.862.56.919,1.164a1.512,1.512,0,0,1-1.863,1.733,1.518,1.518,0,0,1-.1-2.845c.146-.883-.374-2.81.46-2.9,1.005-.1.442,1.921.587,2.845" transform="translate(16.818 69.616)" fill="#fff"/>
      </g>
      <g id="Group_3263" data-name="Group 3263" transform="translate(0 0)">
        <path id="Path_2446" data-name="Path 2446" d="M-252.954-384.028a1.211,1.211,0,0,0,1.544-1.564,1.159,1.159,0,0,0-1.3-.706,1.2,1.2,0,0,0-.242,2.27m-7.327-7.761c.883,1.14,1.691,2.357,2.574,3.5.731-1.009,1.546-2.136,2.271-3.129.109-.149.277-.328.242-.43a9.822,9.822,0,0,0-5.087.061m7.509-8.9v-1.534c-1.736.02-3.552-.041-5.238.031a10.8,10.8,0,0,0,5.238,1.5m-9.931-1.442c.072,1.623-.1,2.93,0,4.387a4.938,4.938,0,0,0,3.088,4.2,5.091,5.091,0,0,0,5.45-1.012c1.085-1.1,1.581-2.713,1.393-5.154a10.925,10.925,0,0,1-6.237-1.994c-.253-.2-.449-.476-.666-.521a7.393,7.393,0,0,0-1.484,0h-1.514c-.035.005-.033.048-.03.092m8.871-5.8a2.576,2.576,0,0,0-.606-.184,26.651,26.651,0,0,0-3.149,0c-1.073,0-2.192-.091-3.149,0a2.244,2.244,0,0,0-1.908,1.472c-.273.945.075,2.15-.061,3.436h9.931c-.08-2.017.421-4-1.06-4.724m-1.06,15.092a11.656,11.656,0,0,1,8.084,7.73,12.516,12.516,0,0,1,.575,3.374c.019.5-.077.841-.454.859-.657.031-.491-.867-.545-1.5a10.412,10.412,0,0,0-1.514-4.6,10.262,10.262,0,0,0-4.148-3.988,17.285,17.285,0,0,1,.818,3.65,2.229,2.229,0,0,1,1.7,2.423,2.133,2.133,0,0,1-2.362,1.9,2.171,2.171,0,0,1-1.907-2.362,2.14,2.14,0,0,1,1.6-1.9,11.938,11.938,0,0,0-1.151-4.2c-.861,1.124-1.663,2.277-2.543,3.5-.173.24-.6,1.008-.969,1.012-.406,0-.774-.772-.969-1.043-.843-1.173-1.726-2.316-2.543-3.466a7.5,7.5,0,0,0-.545,2.239,3.254,3.254,0,0,1,2.452,2.945c.045.623,0,1.318,0,2.025a10.071,10.071,0,0,1-.061,2.209,1.48,1.48,0,0,1-.575.828c-.339.253-1.34.642-1.3-.184.026-.564.727-.406.908-.8a6.349,6.349,0,0,0,.061-1.994c0-.851.059-1.414,0-2.055a1.945,1.945,0,0,0-2.755-1.779,2.148,2.148,0,0,0-1.12,1.718c-.059.562,0,1.287,0,2.055a7.523,7.523,0,0,0,.061,2.055c.181.392.837.22.908.736.125.9-1.055.514-1.423.184-.634-.569-.515-1.643-.515-2.884,0-.728-.046-1.471,0-2.117a3.084,3.084,0,0,1,2.392-2.883,11.642,11.642,0,0,1,.3-1.81,10.5,10.5,0,0,0-5.48,6.81,10.3,10.3,0,0,0-.3,1.749c-.056.65.056,1.507-.515,1.534-.811.038-.469-1.5-.394-2.055a11.355,11.355,0,0,1,2.331-5.644A11.5,11.5,0,0,1-260.4-392.8a5.966,5.966,0,0,1-3.27-5.767v-3.9c0-1.291-.1-2.643,0-3.9a3.06,3.06,0,0,1,2.876-2.73c1.061-.084,2.135,0,3.179,0s2.129-.082,3.179,0a2.863,2.863,0,0,1,2.634,2.638c.115,1.327,0,2.8,0,4.2v4.172a5.684,5.684,0,0,1-3.088,5.246" transform="translate(269.258 409.127)" fill="#fff"/>
      </g>
      <g id="Group_3264" data-name="Group 3264" transform="translate(9.941 1.75)">
        <path id="Path_2447" data-name="Path 2447" d="M-33.887-18.854c.388.052.655-.086.939.031a.521.521,0,0,1,0,.92c-.247.1-.561-.012-.908.031-.1.308.042.693-.061.951a.508.508,0,0,1-.908,0c-.115-.287.021-.557-.03-.951-.356-.045-.684.074-.939-.031a.521.521,0,0,1,0-.92c.276-.113.529.019.908-.031.118-.375-.066-.633.061-.951a.508.508,0,0,1,.908,0c.1.259-.015.589.03.951" transform="translate(36.071 20.086)" fill="#fff"/>
      </g>
    </g>
  </g>
</svg>
