<svg xmlns="http://www.w3.org/2000/svg" xmlns:xlink="http://www.w3.org/1999/xlink" width="25.529" height="24.756" viewBox="0 0 25.529 24.756">
  <defs>
    <clipPath id="clip-path">
      <path id="Path_2392" data-name="Path 2392" d="M0-396.909H25.529v24.756H0Z" transform="translate(0 396.909)" fill="#2e3543"/>
    </clipPath>
  </defs>
  <g id="Group_3194" data-name="Group 3194" transform="translate(0 396.909)">
    <g id="Group_3193" data-name="Group 3193" transform="translate(0 -396.909)" clip-path="url(#clip-path)">
      <g id="Group_3184" data-name="Group 3184" transform="translate(0 0)">
        <path id="Path_2383" data-name="Path 2383" d="M-233.645-281.117a3.2,3.2,0,0,0-1.092,1.9,2.754,2.754,0,0,0,2.994,3.119c1.309-.109,2.044-1.14,2.807-1.9a6.411,6.411,0,0,0,.78-.811c0-.059-.38-.348-.5-.468-1.172-1.172-2.266-2.312-3.4-3.4-.524.513-1.041,1.01-1.591,1.559m7.766.031a3.13,3.13,0,0,0,1.154-1.934,2.742,2.742,0,0,0-2.994-3.119c-1.33.117-2.006,1.133-2.807,1.934-.091.091-.784.668-.78.78,0,.059.387.356.5.468,1.168,1.168,2.269,2.288,3.368,3.4a21.751,21.751,0,0,0,1.559-1.528m-4.179-14.44a10.309,10.309,0,0,0-8.14-3.212,10.185,10.185,0,0,0-7.329,3.618,10.415,10.415,0,0,0-2.526,8.2,10.359,10.359,0,0,0,3.9,6.924,10.589,10.589,0,0,0,8.452,2.09c-.554-2.553,1.132-3.784,2.339-4.99l1.747-1.746c1.2-1.2,2.18-2.644,4.429-2.557a10.333,10.333,0,0,0-2.869-8.327m3.93,8.514a4.4,4.4,0,0,1,2.214,2.183,4.085,4.085,0,0,1-.312,3.493,19.718,19.718,0,0,1-2.713,2.838,30.268,30.268,0,0,1-2.776,2.745,4.052,4.052,0,0,1-4.741-.156,8.975,8.975,0,0,1-.873-1,11.565,11.565,0,0,1-9.388-2.183,11.31,11.31,0,0,1-4.366-7.641,11.475,11.475,0,0,1,2.713-9.044,11.178,11.178,0,0,1,8.078-4.023,11.294,11.294,0,0,1,8.982,3.555,11.278,11.278,0,0,1,3.181,9.232" transform="translate(249.188 299.817)" fill="#2e3543"/>
      </g>
      <g id="Group_3185" data-name="Group 3185" transform="translate(10.988 1.398)">
        <path id="Path_2384" data-name="Path 2384" d="M-6.111-.363c.922-.256.943,1.6.187,1.622-.723.02-.786-1.456-.187-1.622" transform="translate(6.518 0.387)" fill="#2e3543"/>
      </g>
      <g id="Group_3186" data-name="Group 3186" transform="translate(6.497 3.601)">
        <path id="Path_2385" data-name="Path 2385" d="M-72.209-129.936c1.039.355,1.295-1.39.249-1.341a.7.7,0,0,0-.249,1.341m.78-2.37a1.871,1.871,0,0,1,1.248,1.684,1.766,1.766,0,0,1-2.526,1.591c-.881.779-1.8,1.772-2.745,2.713-.226.226-.64.782-1.029.78a.554.554,0,0,1-.53-.5c-.02-.421.545-.826.78-1.06.926-.926,1.839-1.794,2.713-2.713a1.775,1.775,0,0,1,1.029-2.464v-4.491c0-.737-.178-1.743.468-1.809.77-.079.593.886.593,1.653Z" transform="translate(77.012 138.58)" fill="#2e3543"/>
      </g>
      <g id="Group_3187" data-name="Group 3187" transform="translate(4.206 4.234)">
        <path id="Path_2386" data-name="Path 2386" d="M-4.92-.4c.454-.175,1.14.551,1.154.873a.542.542,0,0,1-.624.561C-4.864.977-5.719-.085-4.92-.4" transform="translate(5.247 0.428)" fill="#2e3543"/>
      </g>
      <g id="Group_3188" data-name="Group 3188" transform="translate(17.439 4.236)">
        <path id="Path_2387" data-name="Path 2387" d="M-11.816-.368c.381-.1.756.1.686.593A1.42,1.42,0,0,1-12,1.067.511.511,0,0,1-12.6.443a1.263,1.263,0,0,1,.78-.811" transform="translate(12.602 0.392)" fill="#2e3543"/>
      </g>
      <g id="Group_3189" data-name="Group 3189" transform="translate(1.366 11.054)">
        <path id="Path_2388" data-name="Path 2388" d="M-5.413-.547a5.452,5.452,0,0,1,.936-.031.562.562,0,0,1,.094,1A1.6,1.6,0,0,1-5.569.389c-.3-.2-.291-.851.156-.936" transform="translate(5.773 0.583)" fill="#2e3543"/>
      </g>
      <g id="Group_3190" data-name="Group 3190" transform="translate(20.087 11.015)">
        <path id="Path_2389" data-name="Path 2389" d="M-5.767-1.139c.606-.176,1.346-.068,1.279.561-.076.7-1.566.652-1.653.031a.468.468,0,0,1,.374-.593" transform="translate(6.15 1.215)" fill="#2e3543"/>
      </g>
      <g id="Group_3191" data-name="Group 3191" transform="translate(4.19 17.47)">
        <path id="Path_2390" data-name="Path 2390" d="M-12.664-.209a.5.5,0,0,1,.655.5,1.232,1.232,0,0,1-.967.967A.516.516,0,0,1-13.506.7a1.233,1.233,0,0,1,.842-.9" transform="translate(13.506 0.223)" fill="#2e3543"/>
      </g>
      <g id="Group_3192" data-name="Group 3192" transform="translate(10.982 20.113)">
        <path id="Path_2391" data-name="Path 2391" d="M-16.522-5.487c-.061.367.084.634,0,.936a.57.57,0,0,1-.967.156,1.624,1.624,0,0,1-.062-1.123.554.554,0,0,1,1.029.031" transform="translate(17.621 5.852)" fill="#2e3543"/>
      </g>
    </g>
  </g>
</svg>
